<?xml version="1.0" standalone="no"?>
<!DOCTYPE svg PUBLIC "-//W3C//DTD SVG 20010904//EN"
 "http://www.w3.org/TR/2001/REC-SVG-20010904/DTD/svg10.dtd">
<svg version="1.0" xmlns="http://www.w3.org/2000/svg"
 width="550.000000pt" height="550.000000pt" viewBox="0 0 550.000000 550.000000"
 preserveAspectRatio="xMidYMid meet">
<metadata>
Created by potrace 1.11, written by Peter Selinger 2001-2013
</metadata>
<g transform="translate(0.000000,550.000000) scale(0.100000,-0.100000)"
fill="#ffffff" stroke="none">
<path d="M2590 5493 c-290 -16 -611 -89 -878 -199 -674 -277 -1212 -811 -1497
-1484 -155 -365 -232 -819 -206 -1209 26 -398 110 -716 276 -1056 142 -289
304 -517 524 -735 450 -445 972 -701 1606 -786 177 -23 506 -24 670 0 386 54
652 139 960 305 915 491 1475 1450 1450 2481 -15 611 -226 1190 -604 1660
-100 124 -302 326 -422 422 -218 174 -530 349 -779 438 -348 125 -743 183
-1100 163z m381 -503 c957 -95 1739 -776 1969 -1712 48 -196 63 -352 57 -587
-10 -396 -103 -734 -294 -1066 -50 -87 -181 -275 -191 -275 -4 0 -130 123
-279 272 -217 217 -273 278 -273 299 0 18 20 47 73 100 39 41 89 105 111 142
21 37 45 67 53 67 8 0 25 11 38 25 23 22 25 32 25 112 0 48 -4 94 -9 102 -5 8
-24 22 -43 30 l-33 16 -6 101 c-4 58 -16 132 -28 172 -20 66 -28 77 -124 174
-56 57 -114 126 -128 153 -15 28 -46 113 -68 190 -23 77 -58 173 -78 213 -60
122 -152 210 -260 248 -29 10 -53 22 -53 27 0 4 113 141 250 304 138 163 250
304 250 313 0 9 -5 21 -12 28 -9 9 -277 12 -1145 12 l-1132 0 -12 -21 c-14
-27 -17 -23 269 -360 122 -145 222 -266 222 -270 0 -4 -11 -9 -24 -11 -21 -4
-76 47 -387 358 -225 225 -360 367 -354 372 14 13 155 115 187 135 15 9 72 42
127 72 392 213 859 309 1302 265z m809 -630 c0 -3 -93 -115 -207 -250 -524
-620 -632 -748 -671 -796 l-42 -50 0 -127 c0 -70 -3 -127 -8 -127 -4 0 -40 33
-79 73 -68 69 -71 74 -75 128 -4 56 -6 58 -139 214 -74 87 -147 174 -164 194
-16 20 -163 194 -327 388 -294 349 -296 352 -265 355 55 5 1977 3 1977 -2z
m-2421 -574 l364 -364 -33 -119 c-46 -166 -77 -221 -188 -333 -52 -52 -102
-111 -112 -130 -25 -51 -43 -133 -49 -235 -6 -90 -6 -90 -38 -104 -40 -18 -53
-53 -52 -135 1 -89 9 -108 52 -129 25 -13 45 -33 59 -60 26 -52 104 -152 152
-194 l36 -31 0 -222 c0 -217 4 -253 34 -272 6 -4 96 -8 200 -8 162 0 192 2
208 17 16 15 18 36 18 234 0 234 2 242 53 254 12 3 139 4 282 3 l260 -3 0
-305 0 -305 -292 -5 c-275 -5 -293 -6 -319 -26 -47 -35 -67 -70 -72 -128 -5
-66 23 -125 78 -159 l35 -22 730 -3 730 -2 45 22 c76 39 112 117 90 197 -11
43 -59 97 -97 112 -13 5 -150 9 -304 9 l-279 0 0 310 0 310 117 0 118 0 157
-157 158 -158 0 -77 c0 -106 12 -118 117 -118 l78 0 227 -227 c126 -125 228
-231 228 -234 0 -13 -177 -133 -285 -193 -381 -212 -771 -308 -1195 -293
-1122 39 -2037 888 -2160 2005 -18 159 -8 473 19 625 52 285 152 550 298 792
60 98 151 225 161 225 4 0 171 -164 371 -364z m2088 -182 c84 -40 119 -103
192 -342 59 -194 55 -244 -24 -262 -22 -5 -181 -10 -352 -10 l-313 0 0 120 0
121 173 205 172 206 49 -6 c28 -3 74 -17 103 -32z m-1435 -471 c71 -70 128
-131 128 -135 0 -11 -197 -9 -245 2 -54 12 -68 34 -62 95 5 55 35 165 45 165
4 0 64 -57 134 -127z m-219 -304 c46 -12 100 -58 117 -99 7 -17 11 -53 8 -84
-8 -95 -76 -156 -173 -156 -154 0 -231 191 -118 297 50 48 101 60 166 42z
m2068 -14 c105 -55 117 -220 21 -293 -31 -23 -45 -27 -106 -27 -60 0 -76 4
-104 24 -39 30 -72 95 -72 142 0 41 29 107 58 132 51 46 138 55 203 22z
m-1001 -1030 c0 -297 4 -506 10 -515 8 -13 55 -15 307 -18 164 -1 308 -4 320
-7 29 -7 55 -57 47 -90 -3 -14 -18 -34 -31 -45 -25 -20 -43 -20 -730 -20 -745
0 -749 0 -767 45 -12 33 -6 72 17 93 22 20 32 21 329 24 330 3 331 3 334 56 1
15 3 277 3 582 l1 555 80 -80 80 -80 0 -500z"/>
<path d="M2909 3920 c-108 -32 -153 -166 -86 -254 84 -109 249 -78 288 54 16
54 4 105 -38 150 -46 52 -103 69 -164 50z"/>
</g>
</svg>
