<?xml version="1.0" standalone="no"?>
<!DOCTYPE svg PUBLIC "-//W3C//DTD SVG 20010904//EN"
 "http://www.w3.org/TR/2001/REC-SVG-20010904/DTD/svg10.dtd">
<svg version="1.0" xmlns="http://www.w3.org/2000/svg"
 width="1024.000000pt" height="558.000000pt" viewBox="0 0 1024.000000 558.000000"
 preserveAspectRatio="xMidYMid meet">
<g transform="translate(0.000000,558.000000) scale(0.100000,-0.100000)"
fill="#063E7E" stroke="none">
<path d="M470 2795 l0 -2255 2393 1 2392 0 2259 2255 2259 2254 -4652 0 -4651
0 0 -2255z m1609 1415 c222 -37 419 -93 589 -168 80 -34 102 -48 97 -60 -5
-14 -281 -496 -304 -531 -8 -12 -18 -10 -63 11 -339 161 -740 204 -929 101
-84 -45 -118 -118 -85 -180 48 -93 202 -175 551 -293 385 -130 583 -239 711
-391 66 -77 103 -145 130 -239 13 -42 25 -68 28 -60 3 8 148 393 322 855 173
462 323 860 333 885 l17 45 400 3 400 2 48 -132 c27 -73 77 -209 111 -303 35
-93 187 -505 338 -915 151 -410 280 -756 285 -770 8 -17 11 300 11 1048 l1
1073 608 -4 c653 -4 689 -6 908 -62 314 -80 531 -259 629 -519 44 -117 68
-290 62 -441 -11 -271 -84 -460 -241 -624 -221 -229 -514 -320 -1033 -321
l-163 0 0 -435 0 -435 -679 0 -679 0 -66 205 c-37 113 -69 205 -72 205 -3 0
-40 -9 -82 -19 -43 -11 -111 -25 -152 -32 -94 -16 -359 -16 -467 0 -73 11
-205 41 -244 56 -11 4 -31 -44 -84 -205 l-69 -210 -418 0 c-230 0 -418 1 -418
3 0 1 18 49 40 106 22 58 38 106 36 109 -2 2 -33 -18 -68 -43 -122 -91 -292
-162 -478 -202 -119 -25 -502 -25 -640 0 -134 25 -301 70 -409 112 -119 45
-282 125 -288 141 -5 14 264 554 277 554 5 0 61 -26 123 -58 143 -73 278 -118
410 -137 237 -34 425 -7 511 73 59 55 82 151 52 211 -41 79 -134 126 -461 233
-568 186 -824 386 -901 703 -24 97 -23 296 0 390 96 378 434 624 946 689 85
11 399 -4 519 -24z"/>
<path d="M5840 3225 l0 -365 158 0 c228 0 335 27 422 106 136 123 139 395 4
514 -89 77 -216 109 -441 110 l-143 0 0 -365z"/>
<path d="M3868 3275 c-5 -9 -140 -429 -248 -770 l-37 -120 28 -12 c41 -18 192
-43 258 -43 113 1 269 32 278 56 2 7 -46 173 -107 371 -148 477 -165 529 -172
518z"/>
</g>
</svg>
