<?xml version="1.0" standalone="no"?>
<!DOCTYPE svg PUBLIC "-//W3C//DTD SVG 20010904//EN"
 "http://www.w3.org/TR/2001/REC-SVG-20010904/DTD/svg10.dtd">
<svg version="1.0" xmlns="http://www.w3.org/2000/svg"
 width="413.000000pt" height="563.000000pt" viewBox="0 0 413.000000 563.000000"
 preserveAspectRatio="xMidYMid meet">
<g transform="translate(0.000000,563.000000) scale(0.100000,-0.100000)"
fill="#063E7E" stroke="none">
<path d="M0 4018 c0 -1043 4 -1654 11 -1728 74 -813 442 -1443 1094 -1873 146
-96 433 -238 615 -305 165 -60 316 -105 351 -104 39 1 366 112 504 171 826
355 1348 992 1500 1831 50 271 48 217 52 1963 l4 1657 -2066 0 -2065 0 0
-1612z m3967 -110 c-3 -1394 -5 -1576 -20 -1687 -76 -563 -270 -987 -612
-1340 -281 -290 -635 -501 -1105 -658 l-164 -56 -106 32 c-266 81 -571 223
-792 370 -351 233 -592 507 -768 874 -129 269 -201 542 -230 877 -6 70 -10
707 -10 1633 l0 1517 1905 0 1906 0 -4 -1562z"/>
<path d="M3257 5280 c-269 -32 -465 -199 -523 -446 -25 -107 -15 -286 21 -384
68 -185 204 -305 405 -357 86 -22 271 -22 362 0 74 18 186 62 205 80 9 9 7 36
-7 116 -10 57 -20 105 -22 106 -2 2 -38 -14 -81 -34 -100 -49 -174 -65 -285
-59 -71 3 -100 10 -145 32 -128 62 -197 208 -184 387 9 108 39 181 101 244 67
69 136 95 249 95 101 0 167 -17 253 -65 37 -20 68 -35 69 -33 2 2 11 46 20 98
9 52 18 104 21 116 5 17 -4 25 -53 47 -111 50 -273 72 -406 57z"/>
<path d="M390 4867 c0 -332 3 -413 16 -462 40 -157 156 -265 334 -312 76 -19
259 -22 332 -5 187 46 306 145 360 299 23 67 23 75 23 473 l0 405 -137 3 -137
3 -3 -398 c-3 -358 -5 -402 -21 -438 -42 -93 -111 -134 -228 -135 -120 0 -189
33 -232 113 -21 41 -22 51 -27 447 l-5 405 -137 3 -138 3 0 -404z"/>
<path d="M1690 4680 l0 -592 263 5 c338 6 424 26 527 123 63 59 90 127 90 227
0 118 -58 210 -161 256 l-38 17 47 35 c29 21 57 55 75 89 26 50 28 62 25 130
-9 146 -86 229 -255 276 -43 12 -123 17 -315 21 l-258 6 0 -593z m493 367 c55
-23 80 -63 74 -120 -8 -88 -71 -126 -209 -127 l-88 0 0 137 0 136 95 -6 c52
-4 109 -13 128 -20z m25 -462 c66 -27 92 -65 92 -135 0 -107 -63 -148 -237
-158 l-103 -5 0 163 0 163 103 -5 c64 -3 118 -12 145 -23z"/>
<path d="M804 3940 c-28 -5 -102 -28 -165 -50 -70 -25 -140 -44 -181 -47 l-68
-6 0 -139 0 -139 53 7 c28 3 111 25 182 50 161 54 251 68 377 61 82 -5 122
-14 250 -58 145 -50 158 -52 253 -52 94 0 109 3 253 52 128 44 168 53 250 58
118 7 218 -8 332 -48 149 -54 190 -62 290 -62 81 0 108 5 185 32 199 72 210
74 365 75 l145 0 150 -51 c87 -30 173 -53 205 -55 l55 -3 0 135 0 135 -66 7
c-36 3 -106 20 -155 38 -145 52 -184 61 -290 67 -125 7 -198 -5 -369 -62 -123
-42 -140 -45 -236 -45 -97 0 -113 3 -232 44 -158 55 -248 70 -377 63 -84 -4
-119 -12 -237 -54 -138 -48 -138 -48 -268 -48 -130 0 -130 0 -269 49 -131 46
-144 48 -260 52 -66 1 -144 -1 -172 -6z"/>
<path d="M2058 3510 c-4 -19 -53 -368 -108 -775 -56 -407 -104 -748 -108 -757
-5 -12 -108 152 -362 577 -195 326 -356 593 -357 591 -2 -1 65 -294 147 -651
82 -357 148 -650 147 -652 -2 -1 -174 161 -383 361 -208 200 -380 362 -382
361 -2 -2 85 -218 193 -480 109 -262 195 -478 193 -480 -2 -2 -144 102 -316
231 -171 129 -314 234 -316 234 -2 0 20 -62 49 -137 150 -390 278 -622 454
-828 226 -265 585 -489 1051 -655 l105 -38 140 52 c395 149 674 311 889 516
177 170 288 325 412 574 66 134 220 504 212 511 -2 2 -145 -102 -318 -231
-173 -129 -315 -234 -317 -234 -3 0 269 666 382 935 16 37 10 33 -92 -63 -59
-55 -232 -220 -383 -365 -151 -145 -276 -259 -278 -253 -1 6 64 300 146 654
82 353 147 642 146 642 -2 0 -164 -269 -361 -597 -196 -328 -358 -592 -360
-587 -1 5 -50 351 -107 769 -58 418 -106 771 -108 785 -3 22 -5 21 -10 -10z"/>
<path d="M836 3479 c-38 -5 -128 -29 -200 -54 -72 -24 -157 -47 -188 -51 l-58
-6 0 -136 0 -135 61 7 c33 3 100 20 147 37 176 64 214 71 372 67 144 -4 146
-4 285 -54 135 -47 144 -49 250 -49 104 0 117 2 240 45 72 25 131 46 133 46 3
2 41 246 42 267 0 14 -34 6 -169 -40 -130 -45 -141 -47 -246 -47 -105 0 -116
2 -249 48 -85 29 -169 51 -220 56 -92 11 -104 11 -200 -1z"/>
<path d="M3074 3479 c-68 -8 -115 -22 -249 -70 -82 -30 -100 -33 -205 -33
-105 0 -123 3 -205 33 -123 45 -194 66 -201 58 -8 -8 24 -259 34 -269 4 -3 23
-11 42 -16 19 -6 76 -26 125 -44 82 -30 100 -33 205 -33 113 0 118 1 255 50
l140 50 165 0 165 0 135 -48 c77 -27 162 -50 198 -54 l62 -6 0 135 0 136 -64
6 c-35 4 -121 27 -192 52 -166 58 -272 71 -410 53z"/>
<path d="M785 3005 c-33 -7 -107 -30 -165 -51 -58 -20 -133 -39 -167 -42 l-63
-5 0 -133 0 -134 51 0 c36 0 97 16 203 52 l151 52 142 1 c122 0 142 2 139 15
-3 8 -17 70 -32 138 l-28 122 -85 -1 c-47 0 -113 -7 -146 -14z"/>
<path d="M3107 3004 c-9 -29 -57 -241 -57 -251 0 -4 64 -8 143 -9 138 0 145
-1 247 -38 146 -52 198 -66 253 -66 l47 0 0 134 0 133 -64 5 c-38 3 -118 24
-202 53 -124 43 -150 48 -250 53 -103 4 -112 3 -117 -14z"/>
<path d="M1730 2953 c-78 -29 -114 -36 -202 -42 l-107 -6 76 -125 c41 -69 78
-129 83 -133 9 -10 115 17 184 47 l53 24 16 123 c20 148 20 149 5 148 -7 0
-56 -17 -108 -36z"/>
<path d="M2275 2958 c3 -18 12 -80 20 -137 9 -58 17 -107 20 -109 7 -8 200
-72 215 -72 12 0 170 244 170 263 0 2 -48 7 -107 10 -92 4 -123 10 -206 41
-54 20 -102 36 -108 36 -6 0 -8 -14 -4 -32z"/>
</g>
</svg>
