<?xml version="1.0" encoding="UTF-8" ?>
<!DOCTYPE svg PUBLIC "-//W3C//DTD SVG 1.1//EN" "http://www.w3.org/Graphics/SVG/1.1/DTD/svg11.dtd">
<svg width="798pt" height="798pt" viewBox="0 0 798 798" version="1.1" xmlns="http://www.w3.org/2000/svg">
<path fill="#eba024" d=" M 0.00 0.00 L 798.00 0.00 L 798.00 798.00 L 0.00 798.00 L 0.00 0.00 Z" />
<path fill="#fffefd" d=" M 115.14 289.24 C 132.30 274.38 154.74 266.83 177.08 264.69 C 195.13 262.93 213.35 264.63 231.09 268.15 C 249.70 271.93 267.97 277.78 284.94 286.39 C 275.42 303.31 266.00 320.30 256.30 337.12 C 240.84 329.47 224.43 323.02 207.11 321.43 C 194.87 320.32 181.89 319.28 170.33 324.31 C 164.78 326.71 159.28 331.49 159.17 337.98 C 159.34 343.60 163.92 347.71 168.11 350.85 C 179.04 358.60 191.80 363.16 204.38 367.46 C 220.12 372.60 235.79 378.38 250.09 386.84 C 263.20 394.61 275.31 405.12 282.01 419.05 C 284.82 424.76 286.53 430.95 287.43 437.23 C 311.28 381.42 335.10 325.61 358.98 269.82 C 379.07 269.80 399.16 269.82 419.25 269.81 C 449.39 336.47 479.33 403.21 509.48 469.86 C 509.53 403.12 509.47 336.37 509.51 269.63 C 536.35 269.61 563.18 269.63 590.02 269.62 C 609.33 269.50 628.94 269.32 647.76 274.27 C 665.15 278.60 682.02 287.49 693.01 301.99 C 704.99 317.54 709.15 337.69 709.01 356.98 C 709.24 374.95 705.33 393.36 695.52 408.61 C 687.43 421.37 675.31 431.33 661.61 437.56 C 646.73 444.40 630.30 447.23 614.02 447.65 C 602.01 447.76 590.01 447.66 578.01 447.70 C 577.98 475.15 578.01 502.60 578.00 530.05 C 539.36 530.03 500.73 529.97 462.09 530.00 C 456.23 516.09 450.53 502.12 444.63 488.22 C 411.04 503.70 370.73 504.52 337.01 488.97 C 331.59 502.63 326.23 516.32 320.83 529.99 C 296.51 530.00 272.18 530.00 247.86 529.99 C 250.67 523.31 253.57 516.67 256.37 509.99 C 240.00 523.02 219.61 530.42 198.87 532.32 C 161.18 535.74 122.63 526.77 89.95 507.79 C 98.41 490.66 106.87 473.54 115.31 456.40 C 126.00 462.71 137.07 468.59 149.02 472.12 C 161.95 476.04 175.63 476.74 189.04 475.87 C 196.95 475.22 205.54 473.07 210.70 466.58 C 215.31 460.95 217.05 451.90 212.03 445.98 C 206.87 439.90 199.18 436.88 191.96 433.99 C 176.79 428.44 161.08 424.33 146.29 417.73 C 129.19 410.24 112.15 400.36 101.26 384.74 C 90.94 370.09 88.48 351.26 90.71 333.81 C 92.97 316.59 101.97 300.51 115.14 289.24 Z" />
<path fill="#eba024" d=" M 578.01 325.77 C 587.69 325.81 597.37 325.64 607.06 325.87 C 615.75 326.24 625.12 328.12 631.56 334.41 C 637.53 340.21 639.37 348.90 639.37 356.94 C 639.57 365.63 637.80 375.03 631.58 381.51 C 625.05 388.47 615.15 390.82 605.93 391.14 C 596.63 391.35 587.32 391.19 578.01 391.23 C 577.99 369.41 577.99 347.59 578.01 325.77 Z" />
<path fill="#eba024" d=" M 358.72 433.87 C 368.98 407.91 379.02 381.85 389.49 355.98 C 400.23 381.88 411.05 407.76 421.88 433.63 C 402.26 443.03 378.28 443.85 358.72 433.87 Z" />
</svg>
